<?xml version="1.0" standalone="no"?>
<!DOCTYPE svg PUBLIC "-//W3C//DTD SVG 20010904//EN"
 "http://www.w3.org/TR/2001/REC-SVG-20010904/DTD/svg10.dtd">
<svg version="1.0" xmlns="http://www.w3.org/2000/svg"
 width="452.000000pt" height="452.000000pt" viewBox="0 0 452.000000 452.000000"
 preserveAspectRatio="xMidYMid meet">
<metadata>
Created by potrace 1.11, written by Peter Selinger 2001-2013
</metadata>
<g transform="translate(0.000000,452.000000) scale(0.100000,-0.100000)"
fill="#000000" stroke="none">
<path d="M552 4149 c-248 -62 -466 -283 -532 -539 -15 -57 -19 -100 -16 -180
6 -175 28 -251 162 -556 116 -264 144 -354 139 -459 -2 -47 -12 -105 -25 -140
-77 -222 -19 -460 140 -576 l47 -34 -29 -51 c-30 -54 -80 -174 -72 -174 3 0 0
-8 -5 -18 -20 -38 -43 -182 -45 -292 -10 -397 169 -697 454 -760 116 -25 279
-1 397 58 120 61 281 203 459 403 172 195 463 625 591 875 21 41 40 74 43 74
3 0 25 -37 49 -83 23 -45 75 -135 115 -200 39 -65 76 -126 81 -135 45 -76 279
-400 345 -476 14 -17 43 -50 64 -75 94 -109 278 -281 358 -334 47 -31 88 -57
91 -57 3 0 18 -5 34 -12 15 -6 33 -13 38 -14 343 -110 631 56 735 422 26 91
34 160 34 289 0 128 -5 171 -38 305 -12 46 -48 137 -78 193 l-34 64 41 28
c170 117 221 337 140 605 -21 70 -25 98 -20 155 9 111 29 170 175 500 53 122
96 243 116 334 14 61 13 238 -1 306 -40 195 -220 419 -404 506 -110 52 -190
68 -326 64 -66 -2 -130 -5 -143 -8 -213 -52 -347 -112 -542 -242 -314 -210
-645 -573 -815 -896 -5 -11 -12 -19 -15 -19 -3 0 -24 35 -48 78 -128 231 -381
526 -607 708 -380 307 -756 437 -1053 363z"/>
</g>
</svg>
